name symmetric_stride_kinematics_HTD_Minus_4.mot
datacolumns 38
datarows 13
range 0.00000000 0.01165248
endheader
                time	/jointset/ground_pelvis/pelvis_tilt/value	/jointset/ground_pelvis/pelvis_list/value	/jointset/ground_pelvis/pelvis_rotation/value	/jointset/ground_pelvis/pelvis_tx/value	/jointset/ground_pelvis/pelvis_ty/value	/jointset/ground_pelvis/pelvis_tz/value	/jointset/hip_r/hip_flexion_r/value	/jointset/hip_r/hip_adduction_r/value	/jointset/hip_r/hip_rotation_r/value	/jointset/knee_r/knee_angle_r/value	/jointset/ankle_r/ankle_angle_r/value	/jointset/subtalar_r/subtalar_angle_r/value	/jointset/mtp_r/mtp_angle_r/value	/jointset/hip_l/hip_flexion_l/value	/jointset/hip_l/hip_adduction_l/value	/jointset/hip_l/hip_rotation_l/value	/jointset/knee_l/knee_angle_l/value	/jointset/ankle_l/ankle_angle_l/value	/jointset/subtalar_l/subtalar_angle_l/value	/jointset/mtp_l/mtp_angle_l/value	/jointset/back/lumbar_extension/value	/jointset/back/lumbar_bending/value	/jointset/back/lumbar_rotation/value	/jointset/acromial_r/arm_flex_r/value	/jointset/acromial_r/arm_add_r/value	/jointset/acromial_r/arm_rot_r/value	/jointset/elbow_r/elbow_flex_r/value	/jointset/radioulnar_r/pro_sup_r/value	/jointset/radius_hand_r/wrist_flex_r/value	/jointset/radius_hand_r/wrist_dev_r/value	/jointset/acromial_l/arm_flex_l/value	/jointset/acromial_l/arm_add_l/value	/jointset/acromial_l/arm_rot_l/value	/jointset/elbow_l/elbow_flex_l/value	/jointset/radioulnar_l/pro_sup_l/value	/jointset/radius_hand_l/wrist_flex_l/value	/jointset/radius_hand_l/wrist_dev_l/value	
          0.00000000	         -8.91715884	         -2.50753311	         -6.04913255	         -0.00000000	          0.99613894	          0.30323091	         34.83896298	          1.87293830	          1.06602132	        -18.55079862	        -18.25457334	        -13.08963017	          3.58299050	         34.23433394	        -14.01037244	          3.44195035	       -118.53295355	         -5.97528197	        -16.05738871	          0.40541842	        -20.56560475	          5.65819486	         -3.96350818	         -6.09382117	        -26.22083739	        -14.26851258	        116.58231562	         80.50943264	        -23.37887166	          7.45078121	         -5.78226654	        -12.17064103	         -9.81302699	         73.51448819	         54.95164064	         -2.56627692	          5.13139491	
          0.00060224	         -8.98152848	         -2.46798177	         -6.24929814	          0.00687417	          0.99564967	          0.30346768	         34.54114607	          1.96824080	          1.06323047	        -18.33429421	        -17.98768071	        -13.09880296	          3.28982060	         34.62875838	        -14.10329331	          3.40635402	       -118.83480951	         -5.75587465	        -16.06438012	          0.80508187	        -20.45290318	          5.57040055	         -3.79818889	         -5.20145431	        -26.21360400	        -14.20335967	        116.99405151	         80.24233390	        -23.28366977	          7.58280115	         -6.17544108	        -11.95054140	         -9.58033846	         73.41719933	         55.29006081	         -2.62063923	          5.11376328	
          0.00250509	         -9.18309908	         -2.32969573	         -6.89159347	          0.02863031	          0.99402629	          0.30422523	         33.58682208	          2.25839113	          1.13021417	        -17.67111965	        -16.95085584	        -13.27226879	          2.28264679	         35.87588420	        -14.40343285	          3.29112973	       -119.77480450	         -5.06691336	        -16.05813699	          1.94378591	        -20.08599962	          5.28219263	         -3.25809036	         -2.37793323	        -26.17543336	        -14.01314538	        118.28666309	         79.51616147	        -22.99572780	          7.96078689	         -7.44717263	        -11.25004648	         -8.85832051	         73.17762924	         56.38398009	         -2.77237983	          5.09087817	
          0.00388416	         -9.32528544	         -2.21529354	         -7.36529565	          0.04443302	          0.99278165	          0.30477965	         32.88276872	          2.45324974	          1.24672145	        -17.22454109	        -16.03525285	        -13.53676525	          1.57187278	         36.77788098	        -14.62476291	          3.20369916	       -120.44177272	         -4.57390983	        -16.03563610	          2.66000429	        -19.81180750	          5.06181435	         -2.85100417	         -0.32800011	        -26.13334736	        -13.89270929	        119.21379380	         79.05427010	        -22.79137787	          8.21479702	         -8.39627402	        -10.73915106	         -8.34256123	         73.06240923	         57.17142585	         -2.87121550	          5.08822491	
          0.00388416	         -9.32528544	         -2.21529354	         -7.36529565	          0.04443302	          0.99278165	          0.30477965	         32.88276872	          2.45324974	          1.24672145	        -17.22454109	        -16.03525285	        -13.53676525	          1.57187278	         36.77788098	        -14.62476291	          3.20369916	       -120.44177272	         -4.57390983	        -16.03563610	          2.66000429	        -19.81180750	          5.06181435	         -2.85100417	         -0.32800011	        -26.13334736	        -13.89270929	        119.21379380	         79.05427010	        -22.79137787	          8.21479702	         -8.39627402	        -10.73915106	         -8.34256123	         73.06240923	         57.17142585	         -2.87121550	          5.08822491	
          0.00448640	         -9.38568707	         -2.16184143	         -7.57350376	          0.05134344	          0.99222209	          0.30502163	         32.57168446	          2.53330715	          1.31359985	        -17.04138577	        -15.60646719	        -13.69235795	          1.29167001	         37.17076486	        -14.72202621	          3.16503499	       -120.72904441	         -4.36096534	        -16.02317360	          2.94936660	        -19.69062844	          4.96303503	         -2.66971575	          0.56815739	        -26.11152965	        -13.84480662	        119.61519535	         78.86495865	        -22.70128936	          8.32212579	         -8.81762947	        -10.51579991	         -8.11768282	         73.02608574	         57.52218630	         -2.91430341	          5.08853756	
          0.00638925	         -9.56582032	         -1.97091656	         -8.24088256	          0.07321342	          0.99039588	          0.30578797	         31.57784139	          2.75677918	          1.58848709	        -16.54131293	        -14.06868437	        -14.27576316	          0.56137450	         38.40040004	        -15.02631605	          3.02929734	       -121.61786086	         -3.70493769	        -15.99202206	          3.88664494	        -19.30545049	          4.63041645	         -2.08108434	          3.40057329	        -26.02947311	        -13.71330803	        120.86770137	         78.37121822	        -22.41482167	          8.62691426	        -10.18008303	         -9.80955404	         -7.41703743	         72.97776196	         58.53594826	         -3.05918674	          5.12020025	
          0.00776832	         -9.67919176	         -1.81271952	         -8.72963620	          0.08909890	          0.98903165	          0.30633798	         30.84138149	          2.88562807	          1.83182942	        -16.27033971	        -12.76639091	        -14.75002524	          0.17929674	         39.27324056	        -15.24126890	          2.91945279	       -122.24264183	         -3.24580200	        -15.98436390	          4.64889423	        -19.03233890	          4.37093103	         -1.64192592	          5.45203587	        -25.95817786	        -13.64592545	        121.76493184	         78.11256985	        -22.20468066	          8.81521486	        -11.19507498	         -9.30015259	         -6.91591840	         73.00170800	         59.23724035	         -3.16464175	          5.16865677	
          0.00776832	         -9.67919176	         -1.81271952	         -8.72963620	          0.08909890	          0.98903165	          0.30633798	         30.84138149	          2.88562807	          1.83182942	        -16.27033971	        -12.76639091	        -14.75002524	          0.17929674	         39.27324056	        -15.24126890	          2.91945279	       -122.24264183	         -3.24580200	        -15.98436390	          4.64889423	        -19.03233890	          4.37093103	         -1.64192592	          5.45203587	        -25.95817786	        -13.64592545	        121.76493184	         78.11256985	        -22.20468066	          8.81521486	        -11.19507498	         -9.30015259	         -6.91591840	         73.00170800	         59.23724035	         -3.16464175	          5.16865677	
          0.00837056	         -9.72252085	         -1.73882850	         -8.94330359	          0.09604556	          0.98842889	          0.30657487	         30.51412030	          2.93203315	          1.94648958	        -16.17987645	        -12.14612906	        -14.96305134	          0.05125089	         39.64798469	        -15.33305100	          2.86902675	       -122.51002210	         -3.04966452	        -15.98661725	          5.01772136	        -18.91666068	          4.25321601	         -1.44761877	          6.34720902	        -25.92435107	        -13.62531784	        122.15501697	         78.02578115	        -22.11188594	          8.88885292	        -11.64530360	         -9.07881711	         -6.69872205	         73.02666929	         59.54312509	         -3.20856032	          5.19210659	
          0.01027341	         -9.82685371	         -1.49957029	         -9.60473337	          0.11803439	          0.98651669	          0.30729162	         29.44410630	          3.04032171	          2.30173592	        -16.00614412	        -10.12428769	        -15.68210242	         -0.19829089	         40.80392950	        -15.61590298	          2.71971059	       -123.33422170	         -2.43710634	        -16.00715270	          6.24635134	        -18.57714912	          3.88020317	         -0.83287520	          9.17197630	        -25.80792267	        -13.60959017	        123.38578860	         77.85605198	        -21.81670130	          9.08719132	        -13.09421517	         -8.38611379	         -6.01438665	         73.17101054	         60.51859761	         -3.36684207	          5.31360291	
          0.01165248	         -9.87414191	         -1.32376088	        -10.06629892	          0.13400511	          0.98512808	          0.30777428	         28.63739196	          3.08254915	          2.55032901	        -15.98682460	         -8.64209917	        -16.23930529	         -0.23194483	         41.62075811	        -15.81214646	          2.62716598	       -123.91220725	         -1.99303096	        -16.02821483	          7.10957411	        -18.35453161	          3.61307234	         -0.38998663	         11.21384100	        -25.71649966	        -13.65085601	        124.27949868	         77.83224490	        -21.60176655	          9.19834197	        -14.16845111	         -7.89501645	         -5.51022298	         73.33246746	         61.27720835	         -3.48806991	          5.42036070	
          0.01165248	         -9.87414191	         -1.32376088	        -10.06629892	          0.13400511	          0.98512808	          0.30777428	         28.63739196	          3.08254915	          2.55032901	        -15.98682460	         -8.64209917	        -16.23930529	         -0.23194483	         41.62075811	        -15.81214646	          2.62716598	       -123.91220725	         -1.99303096	        -16.02821483	          7.10957411	        -18.35453161	          3.61307234	         -0.38998663	         11.21384100	        -25.71649966	        -13.65085601	        124.27949868	         77.83224490	        -21.60176655	          9.19834197	        -14.16845111	         -7.89501645	         -5.51022298	         73.33246746	         61.27720835	         -3.48806991	          5.42036070	
